<?xml version="1.0" standalone="no"?>
<!DOCTYPE svg PUBLIC "-//W3C//DTD SVG 1.1//EN"
  "http://www.w3.org/Graphics/SVG/1.1/DTD/svg11.dtd">
<svg width="56mm" height="57mm" viewBox="18 -167 56 57" xmlns="http://www.w3.org/2000/svg" version="1.1">
	<title>svgOutput</title>
	<desc>made with tinkercad</desc>
<path d="M 73 -157.87478637695312 L 73 -157.4718475341797 L 73 -156.9980010986328 L 73 -142.9980010986328 L 73 -120.00299835205078 L 73 -119.38400268554688 L 73 -119.12520599365234 L 71.8550033569336 -119.70899963378906 L 70 -120.00299835205078 L 68.1449966430664 -119.70899963378906 L 66.76031494140625 -119.00299835205078 L 66.47200012207031 -118.85600280761719 L 65.99800109863281 -118.38200378417969 L 65.14399719238281 -117.52799987792969 L 64.29100036621094 -115.8550033569336 L 64.10667419433594 -114.68800354003906 L 63.99800109863281 -114 L 64.29100036621094 -112.1449966430664 L 64.87479400634766 -111 L 64.47185516357422 -111 L 63.99800109863281 -111 L 57.99800109863281 -111 L 27.003000259399414 -111 L 26.384000778198242 -111 L 26.125207901000977 -111 L 26.708999633789062 -112.1449966430664 L 27.003000259399414 -114 L 26.708999633789062 -115.8550033569336 L 25.856000900268555 -117.52799987792969 L 25.003000259399414 -118.38099670410156 L 24.527999877929688 -118.85600280761719 L 22.854999542236328 -119.70899963378906 L 21 -120.00299835205078 L 19.145000457763672 -119.70899963378906 L 19 -119.63507080078125 L 19 -119.68601989746094 L 19 -120.00299835205078 L 19 -156.9980010986328 L 19 -157.36492919921875 L 19.145000457763672 -157.29100036621094 L 21 -156.9980010986328 L 22.854999542236328 -157.29100036621094 L 24.527999877929688 -158.1439971923828 L 25.003000259399414 -158.61900329589844 L 25.381999969482422 -158.9980010986328 L 25.856000900268555 -159.4720001220703 L 26.003000259399414 -159.76031494140625 L 26.708999633789062 -161.14500427246094 L 27.003000259399414 -163 L 26.708999633789062 -164.85499572753906 L 26.125207901000977 -166 L 26.527528762817383 -166 L 27.003000259399414 -166 L 63.99800109863281 -166 L 64.61599731445312 -166 L 64.87479400634766 -166 L 64.29100036621094 -164.85499572753906 L 64.13067626953125 -163.83999633789062 L 63.99800109863281 -163 L 64.29100036621094 -161.14500427246094 L 65.14399719238281 -159.4720001220703 L 65.61799621582031 -158.9980010986328 L 65.99800109863281 -158.6179962158203 L 66.47200012207031 -158.1439971923828 L 68.1449966430664 -157.29100036621094 L 70 -156.9980010986328 L 70.00299835205078 -156.99847412109375 L 71.8550033569336 -157.29100036621094 L 73 -157.87478637695312 z" fill="none" stroke="rgb(0,0,255)" stroke-width="0.01mm" />
</svg>